<svg width="20" height="20" viewBox="0 0 20 20" fill="none" xmlns="http://www.w3.org/2000/svg">
<g clip-path="url(#clip0_14355_260579)">
<path fill-rule="evenodd" clip-rule="evenodd" d="M9.23681 0.0622641C8.88544 0.18703 8.59372 0.578709 8.59372 0.925741V1.09387H5.33025H2.06673L1.97087 1.18976C1.83646 1.32414 1.84345 1.49805 1.98915 1.64375L2.10333 1.75793L4.40126 1.75863L6.69919 1.75933L6.22614 2.00765C4.63036 2.84531 3.42286 4.08082 2.63345 5.68371C2.35384 6.25144 2.07185 7.06672 1.96841 7.60625L1.89989 7.96355L1.66282 8.04859C1.48044 8.11402 1.37079 8.18937 1.18735 8.37543C0.899464 8.66742 0.801846 8.90672 0.803487 9.31652C0.80544 9.80476 1.09767 10.2632 1.55114 10.4893C1.74583 10.5864 1.82357 10.6024 2.10935 10.6039C2.38872 10.6053 2.47618 10.5893 2.66091 10.5027C3.09251 10.3003 3.36157 9.94797 3.43482 9.48926C3.47782 9.21992 3.41692 9.05687 3.24696 8.98648C3.14841 8.94566 3.10216 8.94539 3.0063 8.98512C2.86435 9.04391 2.82306 9.11332 2.77302 9.37722C2.72454 9.63277 2.60763 9.79515 2.40618 9.88664C2.20388 9.97848 2.05407 9.97859 1.85235 9.88699C1.55482 9.75183 1.40372 9.44016 1.48661 9.13238C1.547 8.90812 1.77357 8.6859 1.97454 8.65387C2.05942 8.64035 2.18614 8.62047 2.25614 8.60972C2.42919 8.5832 2.48817 8.47711 2.55939 8.06426C2.98021 5.62465 4.49907 3.59082 6.69919 2.52082C7.41446 2.17297 8.06318 1.97082 8.9497 1.81953C9.18454 1.77945 9.23657 1.68515 9.24982 1.27535C9.26849 0.697616 9.30978 0.664178 10.0044 0.664178C10.7224 0.664178 10.7392 0.68121 10.7409 1.41086C10.742 1.89086 10.7343 1.95273 10.6612 2.04562C10.6167 2.10223 10.545 2.14855 10.5019 2.14855C10.3778 2.14855 10.1953 2.35703 10.1953 2.4989C10.1953 2.67277 10.3457 2.81262 10.5327 2.81262C10.9585 2.81262 11.4062 2.33476 11.4062 1.88035V1.75793H14.6514H17.8966L18.0108 1.64375C18.1565 1.49805 18.1635 1.32414 18.0291 1.18976L17.9332 1.09387H14.6697H11.4062V0.925741C11.4062 0.572616 11.1122 0.189256 10.7408 0.0582407C10.5168 -0.0208218 9.46282 -0.0179702 9.23681 0.0622641ZM13.6747 2.25148C13.4877 2.48918 13.5846 2.64914 14.1182 2.98387C15.2645 3.70277 16.3174 4.93933 16.891 6.24004C17.1593 6.84848 17.3228 7.39293 17.4381 8.06203C17.51 8.47957 17.5693 8.58285 17.7536 8.61156C17.829 8.62332 17.9556 8.64316 18.0352 8.6557C18.2259 8.68574 18.4544 8.91351 18.5133 9.13238C18.5962 9.44016 18.4451 9.75183 18.1476 9.88699C17.9459 9.97859 17.7961 9.97848 17.5938 9.88664C17.3923 9.79515 17.2754 9.63277 17.2269 9.37722C17.1769 9.11332 17.1356 9.04391 16.9936 8.98512C16.8978 8.94539 16.8515 8.94566 16.753 8.98648C16.583 9.05687 16.5221 9.21992 16.5651 9.48926C16.6384 9.94797 16.9074 10.3003 17.339 10.5027C17.5238 10.5893 17.6112 10.6053 17.8906 10.6039C18.1764 10.6024 18.2541 10.5864 18.4488 10.4893C18.9023 10.2632 19.1945 9.80476 19.1965 9.31652C19.1981 8.90672 19.1005 8.66742 18.8126 8.37543C18.6292 8.18937 18.5195 8.11402 18.3371 8.04859L18.1 7.96355L18.0315 7.60625C17.8783 6.80687 17.4476 5.72945 16.9795 4.97469C16.465 4.14508 15.7202 3.32812 14.9537 2.75273C14.1396 2.14156 13.8503 2.0282 13.6747 2.25148ZM8.55505 4.54371C8.48009 4.56758 8.34825 4.65926 8.26208 4.7475C8.13415 4.87848 5.61634 8.90121 5.36567 9.37512C5.30927 9.48172 5.29333 9.59785 5.29314 9.90246L5.29294 10.2931L6.01021 11.9115C6.63388 13.3188 6.71939 13.5354 6.6656 13.5717C6.63157 13.5946 6.53134 13.6573 6.44278 13.7111C6.25419 13.8255 6.04048 14.101 5.95372 14.3416C5.8722 14.5677 5.83939 15.1954 5.89396 15.4859C6.00716 16.0886 6.42411 16.5084 6.99986 16.5994C7.10392 16.6159 7.20028 16.6405 7.21396 16.6542C7.22763 16.6679 7.1547 17.3664 7.05189 18.2064L6.86489 19.7336L6.94228 19.8376C7.09958 20.0489 7.40556 20.0343 7.49673 19.8112C7.52013 19.754 7.63567 18.928 7.75353 17.9758C8.01782 15.8402 8.04989 16.0025 7.35591 15.9634C6.81841 15.9331 6.58864 15.7309 6.53771 15.2433C6.4854 14.7428 6.59251 14.4178 6.87192 14.2296L7.00372 14.1407H9.99997H12.9962L13.128 14.2296C13.4074 14.4178 13.5145 14.7428 13.4622 15.2433C13.431 15.5421 13.3147 15.7477 13.1106 15.8646L12.9492 15.9571L11.1133 15.967C10.1035 15.9724 9.23661 15.9862 9.18685 15.9977C9.13079 16.0106 9.07489 16.07 9.03986 16.1539C8.92392 16.4312 9.12005 16.6407 9.49568 16.6407H9.64376L9.65583 17.6923C9.66794 18.7439 9.66794 18.744 9.76263 18.8447C9.8931 18.9835 10.1068 18.9835 10.2373 18.8447C10.332 18.744 10.332 18.7438 10.3441 17.695L10.3561 16.6461L11.7113 16.632C13.1993 16.6164 13.227 16.6125 13.5722 16.3645C13.9228 16.1127 14.0933 15.7664 14.1284 15.2345C14.1818 14.4254 13.9391 13.896 13.3789 13.5996L13.1836 13.4962L10.3079 13.4855L7.43228 13.4747L6.68485 11.7832C5.83224 9.85347 5.83661 9.86973 6.06567 9.49C6.86501 8.16488 8.7386 5.18234 8.78216 5.16562C8.81329 5.15371 8.86708 5.16183 8.90177 5.18367C8.95806 5.21918 8.96692 5.44043 8.98435 7.2441L9.00388 9.26476L9.11349 9.35898C9.25669 9.48215 9.42837 9.48152 9.55251 9.35734L9.64841 9.26148V7.18785C9.64841 5.22402 9.64446 5.10652 9.57388 4.96926C9.37755 4.58758 8.96212 4.41406 8.55505 4.54371ZM10.88 4.55246C10.6908 4.62433 10.5254 4.77617 10.4261 4.96926C10.3555 5.10656 10.3515 5.2243 10.3515 7.20437V9.29453L10.5566 9.4468C10.8195 9.64199 10.8778 9.70926 10.9753 9.92965C11.2116 10.4638 11.0226 11.0627 10.5374 11.3171C10.3601 11.4101 10.2867 11.4248 9.99997 11.4248C9.71661 11.4248 9.63931 11.4097 9.47263 11.3218C9.36521 11.2652 9.2386 11.1773 9.19134 11.1266C9.07442 11.0011 8.95767 10.724 8.92345 10.4909C8.86923 10.1211 8.55509 9.98578 8.34118 10.24C8.24677 10.3522 8.24025 10.3815 8.26517 10.5818C8.35931 11.3387 8.81095 11.8566 9.55075 12.0559C10.144 12.2158 10.9108 11.9968 11.3092 11.5536C11.7721 11.0388 11.8791 10.2606 11.5753 9.61847C11.5205 9.50254 11.3721 9.29703 11.2456 9.16183L11.0156 8.91594V7.08C11.0156 5.12691 11.0155 5.12805 11.1981 5.1632C11.2548 5.17414 12.9577 7.86519 13.8872 9.41293C14.1584 9.86445 14.1545 9.88867 13.6129 11.1093C13.3406 11.7229 13.164 12.1707 13.164 12.2476C13.164 12.441 13.2793 12.557 13.4718 12.557C13.5647 12.557 13.6574 12.5314 13.6927 12.4959C13.7543 12.4344 14.595 10.5733 14.6865 10.2961C14.7613 10.0694 14.7217 9.55211 14.6136 9.34246C14.4794 9.08234 11.9233 4.95953 11.802 4.80754C11.5906 4.54277 11.1943 4.43312 10.88 4.55246ZM12.4361 17.7802C12.2506 17.87 12.2454 17.9413 12.3567 18.8639C12.4136 19.3355 12.4802 19.7653 12.5047 19.8191C12.6033 20.0354 12.9027 20.0457 13.0573 19.838C13.1342 19.7347 13.1342 19.7334 13.0278 18.8615C12.9692 18.3813 12.9054 17.9586 12.8861 17.922C12.7995 17.7586 12.6064 17.6977 12.4361 17.7802Z" fill="white"/>
</g>
<defs>
<clipPath id="clip0_14355_260579">
<rect width="20" height="20" fill="white"/>
</clipPath>
</defs>
</svg>
