<svg width="20" height="20" viewBox="0 0 20 20" fill="none" xmlns="http://www.w3.org/2000/svg">
<path fill-rule="evenodd" clip-rule="evenodd" d="M3.28394 1.12305C3.21026 1.16059 3.11358 1.24094 3.06909 1.3016C2.98839 1.4116 2.98815 1.42488 2.97788 6.3602C2.97058 9.85602 2.97999 11.3387 3.00999 11.4114C3.03335 11.4679 3.10507 11.5646 3.16937 11.6262L3.28628 11.7382H9.99933H16.7124L16.8169 11.6405C17.0445 11.4279 17.0312 11.7533 17.0311 6.41789C17.031 1.81668 17.0267 1.49531 16.9627 1.36988C16.9252 1.29621 16.8448 1.19953 16.7842 1.15504C16.6753 1.07512 16.6377 1.07402 13.7328 1.06367C10.8986 1.05355 10.7883 1.05586 10.7005 1.12699C10.5741 1.22926 10.5737 1.46551 10.6996 1.56746C10.7859 1.63738 10.9129 1.64055 13.6175 1.64055H16.4452V3.80871V5.97691L12.9634 5.96691L9.48147 5.95695L9.42753 5.74211C9.33202 5.36164 9.14917 5.04594 8.85167 4.7477C8.40218 4.29711 7.9298 4.10148 7.2912 4.10148C6.29331 4.10148 5.38222 4.8218 5.18386 5.76762L5.14003 5.97648H4.34733H3.5546V3.80852V1.64055H6.57874C8.24202 1.64055 9.63265 1.62914 9.66901 1.61516C9.84292 1.54844 9.85468 1.1832 9.68589 1.09285C9.64097 1.06883 8.46253 1.05465 6.51616 1.05469C3.64366 1.05473 3.40812 1.05973 3.28394 1.12305ZM7.10929 2.46086C7.04218 2.52797 7.03116 2.59105 7.03116 2.90855C7.03116 3.23844 7.04034 3.28668 7.11667 3.35777C7.22464 3.45836 7.39913 3.46008 7.49773 3.36148C7.6573 3.20191 7.6578 2.58086 7.49847 2.45184C7.38515 2.36008 7.20593 2.36422 7.10929 2.46086ZM5.03898 3.00773C4.99159 3.05512 4.96085 3.13793 4.96085 3.21824C4.96085 3.32898 4.9996 3.38812 5.19753 3.57957C5.32769 3.70547 5.46851 3.82117 5.51042 3.83668C5.61058 3.87375 5.76585 3.81242 5.81784 3.71531C5.91011 3.54289 5.86819 3.43332 5.61191 3.17699C5.33757 2.9027 5.18815 2.85855 5.03898 3.00773ZM8.9998 3.1832C8.74534 3.44145 8.70206 3.54848 8.78749 3.70809C8.84761 3.82043 9.03706 3.88301 9.14675 3.82676C9.27917 3.75883 9.56683 3.47531 9.63503 3.34551C9.74007 3.14559 9.59409 2.92961 9.35394 2.92961C9.27737 2.92961 9.18339 2.99691 8.9998 3.1832ZM6.74464 4.78301C6.30394 4.96422 6.03222 5.21816 5.84214 5.62652C5.66398 6.00926 5.52698 5.97648 7.3046 5.97648C9.08991 5.97648 8.9489 6.01281 8.75487 5.60266C8.47382 5.00859 7.95714 4.68641 7.2887 4.68836C7.04593 4.68906 6.91968 4.71102 6.74464 4.78301ZM1.07413 5.89328C1.00968 5.93332 0.741632 6.18652 0.478429 6.45602C-0.152118 7.10168 -0.153095 7.03891 0.49796 7.70269C1.13401 8.35117 1.24073 8.41109 1.42745 8.22434C1.61226 8.03957 1.56929 7.93285 1.12667 7.47793L0.729991 7.07023L1.12667 6.66254C1.56929 6.20762 1.61226 6.1009 1.42745 5.91613C1.31273 5.80141 1.23069 5.79609 1.07413 5.89328ZM18.5724 5.91613C18.3876 6.1009 18.4305 6.20762 18.8732 6.66254L19.2698 7.07023L18.8732 7.47793C18.4305 7.93285 18.3876 8.03957 18.5724 8.22434C18.7585 8.41047 18.8634 8.3518 19.5019 7.70488C19.9348 7.26617 19.9999 7.18359 19.9999 7.07289C19.9999 6.96238 19.9342 6.87855 19.5019 6.43777C18.8658 5.7893 18.7591 5.72937 18.5724 5.91613ZM3.5546 8.18352V9.80461H4.82671C5.64866 9.80461 6.1262 9.81926 6.17624 9.84606C6.36358 9.94633 6.34597 10.2561 6.14776 10.3464C6.08226 10.3763 5.64722 10.3905 4.80276 10.3905H3.5546V10.7812V11.1718H9.99991H16.4452V9.62801V8.08422L12.952 8.0948C9.47312 8.10535 9.45827 8.10574 9.34847 8.18738C9.19292 8.30301 9.18019 8.47961 9.31944 8.58914C9.4089 8.65953 9.47737 8.67184 9.78058 8.67203C10.1962 8.67227 10.3477 8.7077 10.59 8.86137C11.1107 9.1916 11.0024 9.97234 10.3905 10.2982C10.2655 10.3648 10.1306 10.372 8.81124 10.3826C7.25866 10.3951 7.18894 10.3875 7.11089 10.1991C7.06269 10.0827 7.10358 9.91613 7.19476 9.85723C7.22296 9.83902 7.90233 9.81535 8.70452 9.80461L10.163 9.78508L10.2573 9.67547C10.3728 9.54113 10.3766 9.44883 10.2706 9.35293C10.2053 9.29387 10.1017 9.27504 9.73351 9.25531C9.10331 9.22156 8.87651 9.10746 8.70987 8.74031C8.51366 8.30805 8.72913 7.80137 9.19913 7.5898C9.3453 7.52398 9.58378 7.51875 12.9003 7.50852L16.4452 7.49754V7.03V6.56242H9.99991H3.5546V8.18352ZM0.902647 13.6091C0.702647 13.72 0.705889 13.6768 0.704405 16.2421C0.702921 18.8516 0.700616 18.8236 0.922296 18.9079C0.981046 18.9302 1.99323 18.9452 3.43776 18.9452H5.85491L5.96452 18.851L6.07413 18.7567L6.08476 16.3221C6.09257 14.5386 6.08327 13.8582 6.04999 13.7778C5.95577 13.5504 6.00476 13.5545 3.39054 13.556C1.478 13.5571 0.977218 13.5678 0.902647 13.6091ZM7.4748 13.5929C7.25909 13.6811 7.26554 13.599 7.26554 16.2616V18.7169L7.37972 18.8311L7.4939 18.9452H9.9353H12.3767L12.4969 18.8441L12.6171 18.743V16.2682V13.7934L12.5228 13.6838L12.4286 13.5741L9.99355 13.5664C8.65429 13.5621 7.52085 13.5741 7.4748 13.5929ZM14.0899 13.617C14.0298 13.6495 13.9639 13.7203 13.9434 13.7742C13.9212 13.8325 13.9062 14.8522 13.9062 16.2945V18.7169L14.0203 18.8311L14.1345 18.9452H16.5569C18.0047 18.9452 19.0187 18.9302 19.0775 18.9079C19.2988 18.8237 19.2968 18.8479 19.2968 16.2772C19.2968 14.6512 19.2833 13.8792 19.2535 13.7936C19.1681 13.5488 19.2317 13.5545 16.5937 13.5562C14.53 13.5575 14.1841 13.5659 14.0899 13.617ZM1.28898 15.2201V16.2997L1.47983 16.1212C1.68132 15.9327 1.8653 15.8679 2.06003 15.9168C2.12355 15.9327 2.36796 16.142 2.65718 16.4282L3.14679 16.9127L3.71155 16.3469C4.50995 15.547 4.5989 15.531 5.16464 16.0846L5.50773 16.4203V15.2804V14.1405H3.39835H1.28898V15.2201ZM7.85148 15.2201V16.2997L8.04343 16.1202C8.25784 15.9196 8.36995 15.8773 8.58417 15.9165C8.70472 15.9385 8.81569 16.0295 9.21616 16.4343L9.70194 16.9255L10.2513 16.3547C10.5535 16.0408 10.8502 15.7657 10.9107 15.7435C11.1865 15.642 11.4282 15.7566 11.792 16.1613L12.0297 16.4257L12.0304 15.2831L12.0312 14.1405H9.94132H7.85148V15.2201ZM14.4921 15.2201V16.2997L14.6841 16.1202C14.8987 15.9193 15.0109 15.8772 15.2248 15.917C15.3438 15.9392 15.4618 16.0342 15.8591 16.4277L16.3472 16.9112L16.9333 16.3297C17.2906 15.9753 17.5615 15.7377 17.6271 15.7213C17.8601 15.6632 17.9994 15.7315 18.3632 16.0822L18.7108 16.4173V15.2789V14.1405H16.6015H14.4921V15.2201ZM4.07019 16.81C3.80808 17.0752 3.59366 17.3089 3.59366 17.3295C3.59366 17.35 3.82956 17.5901 4.11792 17.863L4.64214 18.3593H5.07495H5.50773V17.8032V17.2472L5.04937 16.7876C4.79726 16.5348 4.58101 16.328 4.56882 16.328C4.55667 16.328 4.33226 16.545 4.07019 16.81ZM10.5946 16.8346L10.1151 17.3319L10.6442 17.8456L11.1734 18.3593H11.6023H12.0312V17.8032V17.2472L11.5728 16.7876C11.3207 16.5348 11.1053 16.3301 11.0943 16.3327C11.0832 16.3352 10.8584 16.5611 10.5946 16.8346ZM17.2526 16.8293L16.7524 17.3305L17.2922 17.8437L17.8319 18.3568L18.2714 18.358L18.7108 18.3593L18.7103 17.8222L18.7097 17.2851L18.2577 16.8066C18.0091 16.5434 17.7937 16.328 17.7792 16.328C17.7646 16.328 17.5276 16.5536 17.2526 16.8293ZM1.59023 16.8525L1.28898 17.1817V17.7705V18.3593H2.53108H3.77319L2.8523 17.4413C2.34581 16.9364 1.92241 16.5234 1.91144 16.5234C1.90046 16.5234 1.75593 16.6715 1.59023 16.8525ZM8.15331 16.827L7.85148 17.1305V17.7449V18.3593H9.0837H10.3159L9.39073 17.4413C8.88187 16.9364 8.46319 16.5234 8.4603 16.5234C8.45745 16.5234 8.31929 16.66 8.15331 16.827ZM14.7939 16.827L14.4921 17.1305V17.7449V18.3593H15.7303H16.9686L16.0526 17.4415C15.5488 16.9367 15.1274 16.5236 15.1162 16.5235C15.105 16.5234 14.9599 16.66 14.7939 16.827Z" fill="white"/>
</svg>
