<svg width="16" height="16" viewBox="0 0 16 16" fill="none" xmlns="http://www.w3.org/2000/svg">
<path opacity="0.16" d="M1.33325 13.0002C1.33325 12.1161 1.68444 11.2683 2.30956 10.6432C2.93468 10.0181 3.78253 9.66687 4.66659 9.66687H11.3333C12.2173 9.66687 13.0652 10.0181 13.6903 10.6432C14.3154 11.2683 14.6666 12.1161 14.6666 13.0002C14.6666 13.4422 14.491 13.8662 14.1784 14.1787C13.8659 14.4913 13.4419 14.6669 12.9999 14.6669H2.99992C2.55789 14.6669 2.13397 14.4913 1.82141 14.1787C1.50885 13.8662 1.33325 13.4422 1.33325 13.0002Z" fill="white"/>
<path d="M1.33325 13.0002C1.33325 12.1161 1.68444 11.2683 2.30956 10.6432C2.93468 10.0181 3.78253 9.66687 4.66659 9.66687H11.3333C12.2173 9.66687 13.0652 10.0181 13.6903 10.6432C14.3154 11.2683 14.6666 12.1161 14.6666 13.0002C14.6666 13.4422 14.491 13.8662 14.1784 14.1787C13.8659 14.4913 13.4419 14.6669 12.9999 14.6669H2.99992C2.55789 14.6669 2.13397 14.4913 1.82141 14.1787C1.50885 13.8662 1.33325 13.4422 1.33325 13.0002Z" stroke="white" stroke-width="1.5" stroke-linejoin="round"/>
<path d="M8 6.3335C9.38071 6.3335 10.5 5.21421 10.5 3.8335C10.5 2.45278 9.38071 1.3335 8 1.3335C6.61929 1.3335 5.5 2.45278 5.5 3.8335C5.5 5.21421 6.61929 6.3335 8 6.3335Z" stroke="white" stroke-width="1.5"/>
</svg>
